<mxfile host="Electron" agent="Mozilla/5.0 (Windows NT 10.0; Win64; x64) AppleWebKit/537.36 (KHTML, like Gecko) draw.io/28.0.6 Chrome/138.0.7204.100 Electron/37.2.3 Safari/537.36" version="28.0.6">
  <diagram name="Страница — 1" id="vQzVKb2Z_a5F4K7ranlB">
    <mxGraphModel dx="3530" dy="2088" grid="1" gridSize="10" guides="1" tooltips="1" connect="1" arrows="1" fold="1" page="1" pageScale="1" pageWidth="1169" pageHeight="1654" background="#ffffff" math="0" shadow="0">
      <root>
        <mxCell id="0" />
        <mxCell id="1" parent="0" />
        <mxCell id="pkvdpl1J6L-VjUebEgiH-8" style="edgeStyle=orthogonalEdgeStyle;rounded=0;orthogonalLoop=1;jettySize=auto;html=1;entryX=0;entryY=0.5;entryDx=0;entryDy=0;" edge="1" parent="1" source="pkvdpl1J6L-VjUebEgiH-1" target="pkvdpl1J6L-VjUebEgiH-7">
          <mxGeometry relative="1" as="geometry" />
        </mxCell>
        <mxCell id="pkvdpl1J6L-VjUebEgiH-1" value="Пользователь" style="sketch=0;pointerEvents=1;shadow=0;dashed=0;html=1;strokeColor=none;labelPosition=center;verticalLabelPosition=bottom;verticalAlign=top;outlineConnect=0;align=center;shape=mxgraph.office.users.user;fillColor=#0159AA;" vertex="1" parent="1">
          <mxGeometry x="280" y="360" width="40" height="40" as="geometry" />
        </mxCell>
        <mxCell id="pkvdpl1J6L-VjUebEgiH-3" value="Администратор&lt;br&gt;(Преподаватель)" style="sketch=0;pointerEvents=1;shadow=0;dashed=0;html=1;strokeColor=none;labelPosition=center;verticalLabelPosition=bottom;verticalAlign=top;outlineConnect=0;align=center;shape=mxgraph.office.users.user;fillColor=#0159AA;" vertex="1" parent="1">
          <mxGeometry x="160" y="280" width="40" height="40" as="geometry" />
        </mxCell>
        <mxCell id="pkvdpl1J6L-VjUebEgiH-4" value="Ученик" style="sketch=0;pointerEvents=1;shadow=0;dashed=0;html=1;strokeColor=none;labelPosition=center;verticalLabelPosition=bottom;verticalAlign=top;outlineConnect=0;align=center;shape=mxgraph.office.users.user;fillColor=#0159AA;" vertex="1" parent="1">
          <mxGeometry x="160" y="440" width="40" height="40" as="geometry" />
        </mxCell>
        <mxCell id="pkvdpl1J6L-VjUebEgiH-5" value="" style="endArrow=classic;html=1;rounded=0;edgeStyle=orthogonalEdgeStyle;curved=1;" edge="1" parent="1" source="pkvdpl1J6L-VjUebEgiH-3" target="pkvdpl1J6L-VjUebEgiH-1">
          <mxGeometry width="50" height="50" relative="1" as="geometry">
            <mxPoint x="270" y="380" as="sourcePoint" />
            <mxPoint x="320" y="330" as="targetPoint" />
            <Array as="points">
              <mxPoint x="240" y="300" />
              <mxPoint x="240" y="380" />
            </Array>
          </mxGeometry>
        </mxCell>
        <mxCell id="pkvdpl1J6L-VjUebEgiH-6" value="" style="endArrow=classic;html=1;rounded=0;edgeStyle=orthogonalEdgeStyle;curved=1;" edge="1" parent="1" source="pkvdpl1J6L-VjUebEgiH-4" target="pkvdpl1J6L-VjUebEgiH-1">
          <mxGeometry width="50" height="50" relative="1" as="geometry">
            <mxPoint x="250" y="480" as="sourcePoint" />
            <mxPoint x="300" y="430" as="targetPoint" />
            <Array as="points">
              <mxPoint x="240" y="460" />
              <mxPoint x="240" y="390" />
            </Array>
          </mxGeometry>
        </mxCell>
        <mxCell id="pkvdpl1J6L-VjUebEgiH-7" value="&lt;font style=&quot;color: rgb(255, 255, 255);&quot;&gt;Управление&lt;br&gt;видео-плеером&lt;br&gt;с помощью горячих клавиш&lt;/font&gt;" style="ellipse;whiteSpace=wrap;html=1;strokeColor=#0159AA;fillColor=#01ADEB;" vertex="1" parent="1">
          <mxGeometry x="360" y="340" width="120" height="80" as="geometry" />
        </mxCell>
        <mxCell id="pkvdpl1J6L-VjUebEgiH-21" style="edgeStyle=orthogonalEdgeStyle;rounded=0;orthogonalLoop=1;jettySize=auto;html=1;exitX=0;exitY=0.5;exitDx=0;exitDy=0;entryX=1;entryY=0.5;entryDx=0;entryDy=0;curved=1;" edge="1" parent="1" source="pkvdpl1J6L-VjUebEgiH-9" target="pkvdpl1J6L-VjUebEgiH-15">
          <mxGeometry relative="1" as="geometry" />
        </mxCell>
        <mxCell id="pkvdpl1J6L-VjUebEgiH-9" value="&lt;font style=&quot;color: rgb(255, 255, 255);&quot;&gt;Перемотать&lt;br&gt;вперед&lt;/font&gt;" style="ellipse;whiteSpace=wrap;html=1;strokeColor=#0159AA;fillColor=#01ADEB;" vertex="1" parent="1">
          <mxGeometry x="720" y="220" width="120" height="70" as="geometry" />
        </mxCell>
        <mxCell id="pkvdpl1J6L-VjUebEgiH-22" style="edgeStyle=orthogonalEdgeStyle;rounded=0;orthogonalLoop=1;jettySize=auto;html=1;exitX=0;exitY=0.5;exitDx=0;exitDy=0;entryX=1;entryY=0.5;entryDx=0;entryDy=0;curved=1;" edge="1" parent="1" source="pkvdpl1J6L-VjUebEgiH-10" target="pkvdpl1J6L-VjUebEgiH-15">
          <mxGeometry relative="1" as="geometry" />
        </mxCell>
        <mxCell id="pkvdpl1J6L-VjUebEgiH-10" value="&lt;font style=&quot;color: rgb(255, 255, 255);&quot;&gt;Перемотать&lt;br&gt;назад&lt;/font&gt;" style="ellipse;whiteSpace=wrap;html=1;strokeColor=#0159AA;gradientColor=none;fillColor=#01ADEB;" vertex="1" parent="1">
          <mxGeometry x="720" y="120" width="120" height="70" as="geometry" />
        </mxCell>
        <mxCell id="pkvdpl1J6L-VjUebEgiH-24" style="edgeStyle=orthogonalEdgeStyle;rounded=0;orthogonalLoop=1;jettySize=auto;html=1;exitX=0;exitY=0.5;exitDx=0;exitDy=0;entryX=1;entryY=0.5;entryDx=0;entryDy=0;curved=1;" edge="1" parent="1" source="pkvdpl1J6L-VjUebEgiH-11" target="pkvdpl1J6L-VjUebEgiH-17">
          <mxGeometry relative="1" as="geometry" />
        </mxCell>
        <mxCell id="pkvdpl1J6L-VjUebEgiH-11" value="&lt;font style=&quot;color: rgb(255, 255, 255);&quot;&gt;Увеличить&lt;br&gt;громкость&lt;/font&gt;" style="ellipse;whiteSpace=wrap;html=1;strokeColor=#0159AA;fillColor=#01ADEB;" vertex="1" parent="1">
          <mxGeometry x="720" y="390" width="120" height="70" as="geometry" />
        </mxCell>
        <mxCell id="pkvdpl1J6L-VjUebEgiH-23" style="edgeStyle=orthogonalEdgeStyle;rounded=0;orthogonalLoop=1;jettySize=auto;html=1;exitX=0;exitY=0.5;exitDx=0;exitDy=0;entryX=1;entryY=0.5;entryDx=0;entryDy=0;curved=1;" edge="1" parent="1" source="pkvdpl1J6L-VjUebEgiH-12" target="pkvdpl1J6L-VjUebEgiH-17">
          <mxGeometry relative="1" as="geometry" />
        </mxCell>
        <mxCell id="pkvdpl1J6L-VjUebEgiH-12" value="&lt;font style=&quot;color: rgb(255, 255, 255);&quot;&gt;Уменьшить&lt;br&gt;громкость&lt;/font&gt;" style="ellipse;whiteSpace=wrap;html=1;strokeColor=#0159AA;fillColor=#01ADEB;" vertex="1" parent="1">
          <mxGeometry x="720" y="300" width="120" height="70" as="geometry" />
        </mxCell>
        <mxCell id="pkvdpl1J6L-VjUebEgiH-26" style="edgeStyle=orthogonalEdgeStyle;rounded=0;orthogonalLoop=1;jettySize=auto;html=1;exitX=0;exitY=0.5;exitDx=0;exitDy=0;entryX=1;entryY=0.5;entryDx=0;entryDy=0;curved=1;" edge="1" parent="1" source="pkvdpl1J6L-VjUebEgiH-13" target="pkvdpl1J6L-VjUebEgiH-19">
          <mxGeometry relative="1" as="geometry" />
        </mxCell>
        <mxCell id="pkvdpl1J6L-VjUebEgiH-13" value="&lt;font style=&quot;color: rgb(255, 255, 255);&quot;&gt;Возобновить воспроизведение&lt;/font&gt;" style="ellipse;whiteSpace=wrap;html=1;strokeColor=#0159AA;fillColor=#01ADEB;" vertex="1" parent="1">
          <mxGeometry x="720" y="560" width="120" height="70" as="geometry" />
        </mxCell>
        <mxCell id="pkvdpl1J6L-VjUebEgiH-25" style="edgeStyle=orthogonalEdgeStyle;rounded=0;orthogonalLoop=1;jettySize=auto;html=1;exitX=0;exitY=0.5;exitDx=0;exitDy=0;entryX=1;entryY=0.5;entryDx=0;entryDy=0;curved=1;" edge="1" parent="1" source="pkvdpl1J6L-VjUebEgiH-14" target="pkvdpl1J6L-VjUebEgiH-19">
          <mxGeometry relative="1" as="geometry" />
        </mxCell>
        <mxCell id="pkvdpl1J6L-VjUebEgiH-14" value="&lt;font style=&quot;color: rgb(255, 255, 255);&quot;&gt;Остановить&lt;br&gt;воспроизведение&lt;/font&gt;" style="ellipse;whiteSpace=wrap;html=1;strokeColor=#0159AA;fillColor=#01ADEB;" vertex="1" parent="1">
          <mxGeometry x="720" y="480" width="120" height="70" as="geometry" />
        </mxCell>
        <mxCell id="pkvdpl1J6L-VjUebEgiH-16" style="edgeStyle=orthogonalEdgeStyle;rounded=0;orthogonalLoop=1;jettySize=auto;html=1;entryX=0.5;entryY=0;entryDx=0;entryDy=0;exitX=0;exitY=0.5;exitDx=0;exitDy=0;curved=1;dashed=1;" edge="1" parent="1" source="pkvdpl1J6L-VjUebEgiH-15" target="pkvdpl1J6L-VjUebEgiH-7">
          <mxGeometry relative="1" as="geometry" />
        </mxCell>
        <mxCell id="pkvdpl1J6L-VjUebEgiH-15" value="&lt;font style=&quot;color: rgb(255, 255, 255);&quot;&gt;Управлять перемоткой&lt;/font&gt;" style="ellipse;whiteSpace=wrap;html=1;strokeColor=#0159AA;fillColor=#01ADEB;" vertex="1" parent="1">
          <mxGeometry x="520" y="170" width="120" height="70" as="geometry" />
        </mxCell>
        <mxCell id="pkvdpl1J6L-VjUebEgiH-18" style="edgeStyle=orthogonalEdgeStyle;rounded=0;orthogonalLoop=1;jettySize=auto;html=1;exitX=0;exitY=0.5;exitDx=0;exitDy=0;entryX=1;entryY=0.5;entryDx=0;entryDy=0;dashed=1;" edge="1" parent="1" source="pkvdpl1J6L-VjUebEgiH-17" target="pkvdpl1J6L-VjUebEgiH-7">
          <mxGeometry relative="1" as="geometry" />
        </mxCell>
        <mxCell id="pkvdpl1J6L-VjUebEgiH-17" value="&lt;font style=&quot;color: rgb(255, 255, 255);&quot;&gt;Управлять громкостью&lt;/font&gt;" style="ellipse;whiteSpace=wrap;html=1;strokeColor=#0159AA;fillColor=#01ADEB;" vertex="1" parent="1">
          <mxGeometry x="560" y="345" width="120" height="70" as="geometry" />
        </mxCell>
        <mxCell id="pkvdpl1J6L-VjUebEgiH-20" style="edgeStyle=orthogonalEdgeStyle;rounded=0;orthogonalLoop=1;jettySize=auto;html=1;exitX=0;exitY=0.5;exitDx=0;exitDy=0;entryX=0.5;entryY=1;entryDx=0;entryDy=0;curved=1;dashed=1;" edge="1" parent="1" source="pkvdpl1J6L-VjUebEgiH-19" target="pkvdpl1J6L-VjUebEgiH-7">
          <mxGeometry relative="1" as="geometry" />
        </mxCell>
        <mxCell id="pkvdpl1J6L-VjUebEgiH-19" value="&lt;font style=&quot;color: rgb(255, 255, 255);&quot;&gt;Управлять воспроизведением&lt;/font&gt;" style="ellipse;whiteSpace=wrap;html=1;strokeColor=#0159AA;fillColor=#01ADEB;" vertex="1" parent="1">
          <mxGeometry x="520" y="520" width="120" height="70" as="geometry" />
        </mxCell>
        <mxCell id="pkvdpl1J6L-VjUebEgiH-27" value="&quot;extend&quot;" style="text;html=1;align=center;verticalAlign=middle;whiteSpace=wrap;rounded=0;" vertex="1" parent="1">
          <mxGeometry x="395" y="220" width="50" height="20" as="geometry" />
        </mxCell>
        <mxCell id="pkvdpl1J6L-VjUebEgiH-28" value="&quot;extend&quot;" style="text;html=1;align=center;verticalAlign=middle;whiteSpace=wrap;rounded=0;" vertex="1" parent="1">
          <mxGeometry x="495" y="360" width="50" height="20" as="geometry" />
        </mxCell>
        <mxCell id="pkvdpl1J6L-VjUebEgiH-29" value="&quot;extend&quot;" style="text;html=1;align=center;verticalAlign=middle;whiteSpace=wrap;rounded=0;" vertex="1" parent="1">
          <mxGeometry x="390" y="520" width="50" height="20" as="geometry" />
        </mxCell>
        <mxCell id="pkvdpl1J6L-VjUebEgiH-31" style="edgeStyle=orthogonalEdgeStyle;rounded=0;orthogonalLoop=1;jettySize=auto;html=1;entryX=0;entryY=0.5;entryDx=0;entryDy=0;" edge="1" parent="1" source="pkvdpl1J6L-VjUebEgiH-32" target="pkvdpl1J6L-VjUebEgiH-37">
          <mxGeometry relative="1" as="geometry" />
        </mxCell>
        <mxCell id="pkvdpl1J6L-VjUebEgiH-32" value="Пользователь" style="sketch=0;pointerEvents=1;shadow=0;dashed=0;html=1;strokeColor=none;labelPosition=center;verticalLabelPosition=bottom;verticalAlign=top;outlineConnect=0;align=center;shape=mxgraph.office.users.user;fillColor=#0159AA;" vertex="1" parent="1">
          <mxGeometry x="280" y="960" width="40" height="40" as="geometry" />
        </mxCell>
        <mxCell id="pkvdpl1J6L-VjUebEgiH-33" value="Администратор&lt;br&gt;(Преподаватель)" style="sketch=0;pointerEvents=1;shadow=0;dashed=0;html=1;strokeColor=none;labelPosition=center;verticalLabelPosition=bottom;verticalAlign=top;outlineConnect=0;align=center;shape=mxgraph.office.users.user;fillColor=#0159AA;" vertex="1" parent="1">
          <mxGeometry x="160" y="880" width="40" height="40" as="geometry" />
        </mxCell>
        <mxCell id="pkvdpl1J6L-VjUebEgiH-34" value="Ученик" style="sketch=0;pointerEvents=1;shadow=0;dashed=0;html=1;strokeColor=none;labelPosition=center;verticalLabelPosition=bottom;verticalAlign=top;outlineConnect=0;align=center;shape=mxgraph.office.users.user;fillColor=#0159AA;" vertex="1" parent="1">
          <mxGeometry x="160" y="1040" width="40" height="40" as="geometry" />
        </mxCell>
        <mxCell id="pkvdpl1J6L-VjUebEgiH-35" value="" style="endArrow=classic;html=1;rounded=0;edgeStyle=orthogonalEdgeStyle;curved=1;" edge="1" parent="1" source="pkvdpl1J6L-VjUebEgiH-33" target="pkvdpl1J6L-VjUebEgiH-32">
          <mxGeometry width="50" height="50" relative="1" as="geometry">
            <mxPoint x="270" y="980" as="sourcePoint" />
            <mxPoint x="320" y="930" as="targetPoint" />
            <Array as="points">
              <mxPoint x="240" y="900" />
              <mxPoint x="240" y="980" />
            </Array>
          </mxGeometry>
        </mxCell>
        <mxCell id="pkvdpl1J6L-VjUebEgiH-36" value="" style="endArrow=classic;html=1;rounded=0;edgeStyle=orthogonalEdgeStyle;curved=1;" edge="1" parent="1" source="pkvdpl1J6L-VjUebEgiH-34" target="pkvdpl1J6L-VjUebEgiH-32">
          <mxGeometry width="50" height="50" relative="1" as="geometry">
            <mxPoint x="250" y="1080" as="sourcePoint" />
            <mxPoint x="300" y="1030" as="targetPoint" />
            <Array as="points">
              <mxPoint x="240" y="1060" />
              <mxPoint x="240" y="990" />
            </Array>
          </mxGeometry>
        </mxCell>
        <mxCell id="pkvdpl1J6L-VjUebEgiH-37" value="&lt;font style=&quot;color: rgb(255, 255, 255);&quot;&gt;Управление&lt;br&gt;видео-плеером&lt;br&gt;с помощью горячих клавиш&lt;/font&gt;" style="ellipse;whiteSpace=wrap;html=1;strokeColor=#0159AA;fillColor=#01ADEB;" vertex="1" parent="1">
          <mxGeometry x="360" y="940" width="120" height="80" as="geometry" />
        </mxCell>
        <mxCell id="pkvdpl1J6L-VjUebEgiH-38" style="edgeStyle=orthogonalEdgeStyle;rounded=0;orthogonalLoop=1;jettySize=auto;html=1;exitX=0;exitY=0.5;exitDx=0;exitDy=0;entryX=1;entryY=0.5;entryDx=0;entryDy=0;curved=1;" edge="1" parent="1" source="pkvdpl1J6L-VjUebEgiH-39" target="pkvdpl1J6L-VjUebEgiH-51">
          <mxGeometry relative="1" as="geometry" />
        </mxCell>
        <mxCell id="pkvdpl1J6L-VjUebEgiH-39" value="&lt;font style=&quot;color: rgb(255, 255, 255);&quot;&gt;Перемотать&lt;br&gt;вперед&lt;/font&gt;" style="ellipse;whiteSpace=wrap;html=1;strokeColor=#0159AA;fillColor=#01ADEB;" vertex="1" parent="1">
          <mxGeometry x="720" y="1000" width="120" height="70" as="geometry" />
        </mxCell>
        <mxCell id="pkvdpl1J6L-VjUebEgiH-40" style="edgeStyle=orthogonalEdgeStyle;rounded=0;orthogonalLoop=1;jettySize=auto;html=1;exitX=0;exitY=0.5;exitDx=0;exitDy=0;entryX=1;entryY=0.5;entryDx=0;entryDy=0;curved=1;" edge="1" parent="1" source="pkvdpl1J6L-VjUebEgiH-41" target="pkvdpl1J6L-VjUebEgiH-51">
          <mxGeometry relative="1" as="geometry" />
        </mxCell>
        <mxCell id="pkvdpl1J6L-VjUebEgiH-41" value="&lt;font style=&quot;color: rgb(255, 255, 255);&quot;&gt;Перемотать&lt;br&gt;назад&lt;/font&gt;" style="ellipse;whiteSpace=wrap;html=1;strokeColor=#0159AA;gradientColor=none;fillColor=#01ADEB;" vertex="1" parent="1">
          <mxGeometry x="720" y="890" width="120" height="70" as="geometry" />
        </mxCell>
        <mxCell id="pkvdpl1J6L-VjUebEgiH-50" style="edgeStyle=orthogonalEdgeStyle;rounded=0;orthogonalLoop=1;jettySize=auto;html=1;entryX=1;entryY=0.5;entryDx=0;entryDy=0;exitX=0;exitY=0.5;exitDx=0;exitDy=0;curved=1;dashed=1;" edge="1" parent="1" source="pkvdpl1J6L-VjUebEgiH-51" target="pkvdpl1J6L-VjUebEgiH-37">
          <mxGeometry relative="1" as="geometry">
            <Array as="points">
              <mxPoint x="560" y="980" />
            </Array>
          </mxGeometry>
        </mxCell>
        <mxCell id="pkvdpl1J6L-VjUebEgiH-51" value="&lt;font style=&quot;color: rgb(255, 255, 255);&quot;&gt;Управлять перемоткой&lt;/font&gt;" style="ellipse;whiteSpace=wrap;html=1;strokeColor=#0159AA;fillColor=#01ADEB;" vertex="1" parent="1">
          <mxGeometry x="560" y="945" width="120" height="70" as="geometry" />
        </mxCell>
        <mxCell id="pkvdpl1J6L-VjUebEgiH-56" value="&quot;extend&quot;" style="text;html=1;align=center;verticalAlign=middle;whiteSpace=wrap;rounded=0;" vertex="1" parent="1">
          <mxGeometry x="495" y="960" width="50" height="20" as="geometry" />
        </mxCell>
        <mxCell id="pkvdpl1J6L-VjUebEgiH-59" style="edgeStyle=orthogonalEdgeStyle;rounded=0;orthogonalLoop=1;jettySize=auto;html=1;entryX=0;entryY=0.5;entryDx=0;entryDy=0;" edge="1" parent="1" source="pkvdpl1J6L-VjUebEgiH-60" target="pkvdpl1J6L-VjUebEgiH-65">
          <mxGeometry relative="1" as="geometry" />
        </mxCell>
        <mxCell id="pkvdpl1J6L-VjUebEgiH-60" value="Пользователь" style="sketch=0;pointerEvents=1;shadow=0;dashed=0;html=1;strokeColor=none;labelPosition=center;verticalLabelPosition=bottom;verticalAlign=top;outlineConnect=0;align=center;shape=mxgraph.office.users.user;fillColor=#0159AA;" vertex="1" parent="1">
          <mxGeometry x="280" y="1240" width="40" height="40" as="geometry" />
        </mxCell>
        <mxCell id="pkvdpl1J6L-VjUebEgiH-61" value="Администратор&lt;br&gt;(Преподаватель)" style="sketch=0;pointerEvents=1;shadow=0;dashed=0;html=1;strokeColor=none;labelPosition=center;verticalLabelPosition=bottom;verticalAlign=top;outlineConnect=0;align=center;shape=mxgraph.office.users.user;fillColor=#0159AA;" vertex="1" parent="1">
          <mxGeometry x="160" y="1160" width="40" height="40" as="geometry" />
        </mxCell>
        <mxCell id="pkvdpl1J6L-VjUebEgiH-62" value="Ученик" style="sketch=0;pointerEvents=1;shadow=0;dashed=0;html=1;strokeColor=none;labelPosition=center;verticalLabelPosition=bottom;verticalAlign=top;outlineConnect=0;align=center;shape=mxgraph.office.users.user;fillColor=#0159AA;" vertex="1" parent="1">
          <mxGeometry x="160" y="1320" width="40" height="40" as="geometry" />
        </mxCell>
        <mxCell id="pkvdpl1J6L-VjUebEgiH-63" value="" style="endArrow=classic;html=1;rounded=0;edgeStyle=orthogonalEdgeStyle;curved=1;" edge="1" parent="1" source="pkvdpl1J6L-VjUebEgiH-61" target="pkvdpl1J6L-VjUebEgiH-60">
          <mxGeometry width="50" height="50" relative="1" as="geometry">
            <mxPoint x="270" y="1260" as="sourcePoint" />
            <mxPoint x="320" y="1210" as="targetPoint" />
            <Array as="points">
              <mxPoint x="240" y="1180" />
              <mxPoint x="240" y="1260" />
            </Array>
          </mxGeometry>
        </mxCell>
        <mxCell id="pkvdpl1J6L-VjUebEgiH-64" value="" style="endArrow=classic;html=1;rounded=0;edgeStyle=orthogonalEdgeStyle;curved=1;" edge="1" parent="1" source="pkvdpl1J6L-VjUebEgiH-62" target="pkvdpl1J6L-VjUebEgiH-60">
          <mxGeometry width="50" height="50" relative="1" as="geometry">
            <mxPoint x="250" y="1360" as="sourcePoint" />
            <mxPoint x="300" y="1310" as="targetPoint" />
            <Array as="points">
              <mxPoint x="240" y="1340" />
              <mxPoint x="240" y="1270" />
            </Array>
          </mxGeometry>
        </mxCell>
        <mxCell id="pkvdpl1J6L-VjUebEgiH-65" value="&lt;font style=&quot;color: rgb(255, 255, 255);&quot;&gt;Управление&lt;br&gt;видео-плеером&lt;br&gt;с помощью горячих клавиш&lt;/font&gt;" style="ellipse;whiteSpace=wrap;html=1;strokeColor=#0159AA;fillColor=#01ADEB;" vertex="1" parent="1">
          <mxGeometry x="360" y="1220" width="120" height="80" as="geometry" />
        </mxCell>
        <mxCell id="pkvdpl1J6L-VjUebEgiH-70" style="edgeStyle=orthogonalEdgeStyle;rounded=0;orthogonalLoop=1;jettySize=auto;html=1;exitX=0;exitY=0.5;exitDx=0;exitDy=0;entryX=1;entryY=0.5;entryDx=0;entryDy=0;curved=1;" edge="1" parent="1" source="pkvdpl1J6L-VjUebEgiH-71" target="pkvdpl1J6L-VjUebEgiH-81">
          <mxGeometry relative="1" as="geometry" />
        </mxCell>
        <mxCell id="pkvdpl1J6L-VjUebEgiH-71" value="&lt;font style=&quot;color: rgb(255, 255, 255);&quot;&gt;Увеличить&lt;br&gt;громкость&lt;/font&gt;" style="ellipse;whiteSpace=wrap;html=1;strokeColor=#0159AA;fillColor=#01ADEB;" vertex="1" parent="1">
          <mxGeometry x="720" y="1280" width="120" height="70" as="geometry" />
        </mxCell>
        <mxCell id="pkvdpl1J6L-VjUebEgiH-72" style="edgeStyle=orthogonalEdgeStyle;rounded=0;orthogonalLoop=1;jettySize=auto;html=1;exitX=0;exitY=0.5;exitDx=0;exitDy=0;entryX=1;entryY=0.5;entryDx=0;entryDy=0;curved=1;" edge="1" parent="1" source="pkvdpl1J6L-VjUebEgiH-73" target="pkvdpl1J6L-VjUebEgiH-81">
          <mxGeometry relative="1" as="geometry" />
        </mxCell>
        <mxCell id="pkvdpl1J6L-VjUebEgiH-73" value="&lt;font style=&quot;color: rgb(255, 255, 255);&quot;&gt;Уменьшить&lt;br&gt;громкость&lt;/font&gt;" style="ellipse;whiteSpace=wrap;html=1;strokeColor=#0159AA;fillColor=#01ADEB;" vertex="1" parent="1">
          <mxGeometry x="720" y="1170" width="120" height="70" as="geometry" />
        </mxCell>
        <mxCell id="pkvdpl1J6L-VjUebEgiH-80" style="edgeStyle=orthogonalEdgeStyle;rounded=0;orthogonalLoop=1;jettySize=auto;html=1;exitX=0;exitY=0.5;exitDx=0;exitDy=0;entryX=1;entryY=0.5;entryDx=0;entryDy=0;dashed=1;" edge="1" parent="1" source="pkvdpl1J6L-VjUebEgiH-81" target="pkvdpl1J6L-VjUebEgiH-65">
          <mxGeometry relative="1" as="geometry" />
        </mxCell>
        <mxCell id="pkvdpl1J6L-VjUebEgiH-81" value="&lt;font style=&quot;color: rgb(255, 255, 255);&quot;&gt;Управлять громкостью&lt;/font&gt;" style="ellipse;whiteSpace=wrap;html=1;strokeColor=#0159AA;fillColor=#01ADEB;" vertex="1" parent="1">
          <mxGeometry x="560" y="1225" width="120" height="70" as="geometry" />
        </mxCell>
        <mxCell id="pkvdpl1J6L-VjUebEgiH-85" value="&quot;extend&quot;" style="text;html=1;align=center;verticalAlign=middle;whiteSpace=wrap;rounded=0;" vertex="1" parent="1">
          <mxGeometry x="495" y="1240" width="50" height="20" as="geometry" />
        </mxCell>
        <mxCell id="pkvdpl1J6L-VjUebEgiH-88" style="edgeStyle=orthogonalEdgeStyle;rounded=0;orthogonalLoop=1;jettySize=auto;html=1;entryX=0;entryY=0.5;entryDx=0;entryDy=0;" edge="1" parent="1" source="pkvdpl1J6L-VjUebEgiH-89" target="pkvdpl1J6L-VjUebEgiH-94">
          <mxGeometry relative="1" as="geometry" />
        </mxCell>
        <mxCell id="pkvdpl1J6L-VjUebEgiH-89" value="Пользователь" style="sketch=0;pointerEvents=1;shadow=0;dashed=0;html=1;strokeColor=none;labelPosition=center;verticalLabelPosition=bottom;verticalAlign=top;outlineConnect=0;align=center;shape=mxgraph.office.users.user;fillColor=#0159AA;" vertex="1" parent="1">
          <mxGeometry x="280" y="1520" width="40" height="40" as="geometry" />
        </mxCell>
        <mxCell id="pkvdpl1J6L-VjUebEgiH-90" value="Администратор&lt;br&gt;(Преподаватель)" style="sketch=0;pointerEvents=1;shadow=0;dashed=0;html=1;strokeColor=none;labelPosition=center;verticalLabelPosition=bottom;verticalAlign=top;outlineConnect=0;align=center;shape=mxgraph.office.users.user;fillColor=#0159AA;" vertex="1" parent="1">
          <mxGeometry x="160" y="1440" width="40" height="40" as="geometry" />
        </mxCell>
        <mxCell id="pkvdpl1J6L-VjUebEgiH-91" value="Ученик" style="sketch=0;pointerEvents=1;shadow=0;dashed=0;html=1;strokeColor=none;labelPosition=center;verticalLabelPosition=bottom;verticalAlign=top;outlineConnect=0;align=center;shape=mxgraph.office.users.user;fillColor=#0159AA;" vertex="1" parent="1">
          <mxGeometry x="160" y="1600" width="40" height="40" as="geometry" />
        </mxCell>
        <mxCell id="pkvdpl1J6L-VjUebEgiH-92" value="" style="endArrow=classic;html=1;rounded=0;edgeStyle=orthogonalEdgeStyle;curved=1;" edge="1" parent="1" source="pkvdpl1J6L-VjUebEgiH-90" target="pkvdpl1J6L-VjUebEgiH-89">
          <mxGeometry width="50" height="50" relative="1" as="geometry">
            <mxPoint x="270" y="1540" as="sourcePoint" />
            <mxPoint x="320" y="1490" as="targetPoint" />
            <Array as="points">
              <mxPoint x="240" y="1460" />
              <mxPoint x="240" y="1540" />
            </Array>
          </mxGeometry>
        </mxCell>
        <mxCell id="pkvdpl1J6L-VjUebEgiH-93" value="" style="endArrow=classic;html=1;rounded=0;edgeStyle=orthogonalEdgeStyle;curved=1;" edge="1" parent="1" source="pkvdpl1J6L-VjUebEgiH-91" target="pkvdpl1J6L-VjUebEgiH-89">
          <mxGeometry width="50" height="50" relative="1" as="geometry">
            <mxPoint x="250" y="1640" as="sourcePoint" />
            <mxPoint x="300" y="1590" as="targetPoint" />
            <Array as="points">
              <mxPoint x="240" y="1620" />
              <mxPoint x="240" y="1550" />
            </Array>
          </mxGeometry>
        </mxCell>
        <mxCell id="pkvdpl1J6L-VjUebEgiH-94" value="&lt;font style=&quot;color: rgb(255, 255, 255);&quot;&gt;Управление&lt;br&gt;видео-плеером&lt;br&gt;с помощью горячих клавиш&lt;/font&gt;" style="ellipse;whiteSpace=wrap;html=1;strokeColor=#0159AA;fillColor=#01ADEB;" vertex="1" parent="1">
          <mxGeometry x="360" y="1500" width="120" height="80" as="geometry" />
        </mxCell>
        <mxCell id="pkvdpl1J6L-VjUebEgiH-103" style="edgeStyle=orthogonalEdgeStyle;rounded=0;orthogonalLoop=1;jettySize=auto;html=1;exitX=0;exitY=0.5;exitDx=0;exitDy=0;entryX=1;entryY=0.5;entryDx=0;entryDy=0;curved=1;" edge="1" parent="1" source="pkvdpl1J6L-VjUebEgiH-104" target="pkvdpl1J6L-VjUebEgiH-112">
          <mxGeometry relative="1" as="geometry" />
        </mxCell>
        <mxCell id="pkvdpl1J6L-VjUebEgiH-104" value="&lt;font style=&quot;color: rgb(255, 255, 255);&quot;&gt;Возобновить воспроизведение&lt;/font&gt;" style="ellipse;whiteSpace=wrap;html=1;strokeColor=#0159AA;fillColor=#01ADEB;" vertex="1" parent="1">
          <mxGeometry x="720" y="1560" width="120" height="70" as="geometry" />
        </mxCell>
        <mxCell id="pkvdpl1J6L-VjUebEgiH-105" style="edgeStyle=orthogonalEdgeStyle;rounded=0;orthogonalLoop=1;jettySize=auto;html=1;exitX=0;exitY=0.5;exitDx=0;exitDy=0;entryX=1;entryY=0.5;entryDx=0;entryDy=0;curved=1;" edge="1" parent="1" source="pkvdpl1J6L-VjUebEgiH-106" target="pkvdpl1J6L-VjUebEgiH-112">
          <mxGeometry relative="1" as="geometry" />
        </mxCell>
        <mxCell id="pkvdpl1J6L-VjUebEgiH-106" value="&lt;font style=&quot;color: rgb(255, 255, 255);&quot;&gt;Остановить&lt;br&gt;воспроизведение&lt;/font&gt;" style="ellipse;whiteSpace=wrap;html=1;strokeColor=#0159AA;fillColor=#01ADEB;" vertex="1" parent="1">
          <mxGeometry x="720" y="1450" width="120" height="70" as="geometry" />
        </mxCell>
        <mxCell id="pkvdpl1J6L-VjUebEgiH-111" style="edgeStyle=orthogonalEdgeStyle;rounded=0;orthogonalLoop=1;jettySize=auto;html=1;exitX=0;exitY=0.5;exitDx=0;exitDy=0;entryX=1;entryY=0.5;entryDx=0;entryDy=0;curved=1;dashed=1;" edge="1" parent="1" source="pkvdpl1J6L-VjUebEgiH-112" target="pkvdpl1J6L-VjUebEgiH-94">
          <mxGeometry relative="1" as="geometry" />
        </mxCell>
        <mxCell id="pkvdpl1J6L-VjUebEgiH-112" value="&lt;font style=&quot;color: rgb(255, 255, 255);&quot;&gt;Управлять воспроизведением&lt;/font&gt;" style="ellipse;whiteSpace=wrap;html=1;strokeColor=#0159AA;fillColor=#01ADEB;" vertex="1" parent="1">
          <mxGeometry x="560" y="1505" width="120" height="70" as="geometry" />
        </mxCell>
        <mxCell id="pkvdpl1J6L-VjUebEgiH-115" value="&quot;extend&quot;" style="text;html=1;align=center;verticalAlign=middle;whiteSpace=wrap;rounded=0;" vertex="1" parent="1">
          <mxGeometry x="495" y="1520" width="50" height="20" as="geometry" />
        </mxCell>
      </root>
    </mxGraphModel>
  </diagram>
</mxfile>
